{
	"asset":{
		"generator":"Khronos glTF Blender I/O v4.1.63",
		"version":"2.0"
	},
	"scene":0,
	"scenes":[
		{
			"name":"Scene",
			"nodes":[
				0,
				1,
				2,
				3,
				4,
				5,
				6
			]
		}
	],
	"nodes":[
		{
			"mesh":0,
			"name":"retro_tv_body__0",
			"translation":[
				0.00389838800765574,
				-0.26509031653404236,
				0.146640807390213
			]
		},
		{
			"mesh":1,
			"name":"dial_01__0",
			"translation":[
				0.2566162347793579,
				-0.05840720236301422,
				0.23820507526397705
			]
		},
		{
			"mesh":2,
			"name":"knob_01__0",
			"translation":[
				0.29347535967826843,
				0.1390833854675293,
				0.24276138842105865
			]
		},
		{
			"mesh":3,
			"name":"knob_02__0",
			"translation":[
				0.29347535967826843,
				0.022170037031173706,
				0.24276138842105865
			]
		},
		{
			"mesh":4,
			"name":"dial_02__0",
			"translation":[
				0.29367420077323914,
				-0.05840720236301422,
				0.23820507526397705
			]
		},
		{
			"mesh":5,
			"name":"dial_03__0",
			"translation":[
				0.33073222637176514,
				-0.05840720236301422,
				0.23820507526397705
			]
		},
		{
			"mesh":6,
			"name":"screen__0",
			"translation":[
				0.2934754192829132,
				-0.004746854305267334,
				0.24436984956264496
			]
		}
	],
	"materials":[
		{
			"doubleSided":true,
			"name":"Scene_-_Root",
			"pbrMetallicRoughness":{
				"baseColorFactor":[
					0.5906188488006592,
					0.6104955673217773,
					0.6444796919822693,
					1
				],
				"metallicFactor":0,
				"roughnessFactor":0.4129999876022339
			}
		}
	],
	"meshes":[
		{
			"name":"retro_tv_body__0",
			"primitives":[
				{
					"attributes":{
						"POSITION":0,
						"NORMAL":1,
						"TEXCOORD_0":2
					},
					"indices":3,
					"material":0
				}
			]
		},
		{
			"name":"dial_01__0",
			"primitives":[
				{
					"attributes":{
						"POSITION":4,
						"NORMAL":5,
						"TEXCOORD_0":6
					},
					"indices":7,
					"material":0
				}
			]
		},
		{
			"name":"knob_01__0",
			"primitives":[
				{
					"attributes":{
						"POSITION":8,
						"NORMAL":9,
						"TEXCOORD_0":10
					},
					"indices":11,
					"material":0
				}
			]
		},
		{
			"name":"knob_02__0",
			"primitives":[
				{
					"attributes":{
						"POSITION":12,
						"NORMAL":13,
						"TEXCOORD_0":14
					},
					"indices":11,
					"material":0
				}
			]
		},
		{
			"name":"dial_02__0",
			"primitives":[
				{
					"attributes":{
						"POSITION":15,
						"NORMAL":16,
						"TEXCOORD_0":17
					},
					"indices":18,
					"material":0
				}
			]
		},
		{
			"name":"dial_03__0",
			"primitives":[
				{
					"attributes":{
						"POSITION":19,
						"NORMAL":20,
						"TEXCOORD_0":21
					},
					"indices":18,
					"material":0
				}
			]
		},
		{
			"name":"screen__0",
			"primitives":[
				{
					"attributes":{
						"POSITION":22,
						"NORMAL":23,
						"TEXCOORD_0":24
					},
					"indices":25,
					"material":0
				}
			]
		}
	],
	"accessors":[
		{
			"bufferView":0,
			"componentType":5126,
			"count":4915,
			"max":[
				0.3984474241733551,
				0.5206868648529053,
				0.11123000830411911
			],
			"min":[
				-0.3978319466114044,
				-6.022500604975826e-16,
				-0.46915343403816223
			],
			"type":"VEC3"
		},
		{
			"bufferView":1,
			"componentType":5126,
			"count":4915,
			"type":"VEC3"
		},
		{
			"bufferView":2,
			"componentType":5126,
			"count":4915,
			"type":"VEC2"
		},
		{
			"bufferView":3,
			"componentType":5123,
			"count":12696,
			"type":"SCALAR"
		},
		{
			"bufferView":4,
			"componentType":5126,
			"count":119,
			"max":[
				0.01269109919667244,
				0.012691076844930649,
				0.015703201293945312
			],
			"min":[
				-0.012691072188317776,
				-0.01269109919667244,
				-5.77557024428188e-09
			],
			"type":"VEC3"
		},
		{
			"bufferView":5,
			"componentType":5126,
			"count":119,
			"type":"VEC3"
		},
		{
			"bufferView":6,
			"componentType":5126,
			"count":119,
			"type":"VEC2"
		},
		{
			"bufferView":7,
			"componentType":5123,
			"count":336,
			"type":"SCALAR"
		},
		{
			"bufferView":8,
			"componentType":5126,
			"count":433,
			"max":[
				0.03539011627435684,
				0.035390131175518036,
				0.03490487486124039
			],
			"min":[
				-0.03539011627435684,
				-0.035390131175518036,
				-1.5848472756374576e-08
			],
			"type":"VEC3"
		},
		{
			"bufferView":9,
			"componentType":5126,
			"count":433,
			"type":"VEC3"
		},
		{
			"bufferView":10,
			"componentType":5126,
			"count":433,
			"type":"VEC2"
		},
		{
			"bufferView":11,
			"componentType":5123,
			"count":1416,
			"type":"SCALAR"
		},
		{
			"bufferView":12,
			"componentType":5126,
			"count":433,
			"max":[
				0.03539011627435684,
				0.035390131175518036,
				0.03490487486124039
			],
			"min":[
				-0.03539011627435684,
				-0.035390131175518036,
				-1.5848472756374576e-08
			],
			"type":"VEC3"
		},
		{
			"bufferView":13,
			"componentType":5126,
			"count":433,
			"type":"VEC3"
		},
		{
			"bufferView":14,
			"componentType":5126,
			"count":433,
			"type":"VEC2"
		},
		{
			"bufferView":15,
			"componentType":5126,
			"count":119,
			"max":[
				0.012691106647253036,
				0.012691076844930649,
				0.015703201293945312
			],
			"min":[
				-0.012691064737737179,
				-0.01269109919667244,
				-5.77557024428188e-09
			],
			"type":"VEC3"
		},
		{
			"bufferView":16,
			"componentType":5126,
			"count":119,
			"type":"VEC3"
		},
		{
			"bufferView":17,
			"componentType":5126,
			"count":119,
			"type":"VEC2"
		},
		{
			"bufferView":18,
			"componentType":5123,
			"count":336,
			"type":"SCALAR"
		},
		{
			"bufferView":19,
			"componentType":5126,
			"count":119,
			"max":[
				0.012691070325672626,
				0.012691076844930649,
				0.015703201293945312
			],
			"min":[
				-0.012691095471382141,
				-0.01269109919667244,
				-5.77557024428188e-09
			],
			"type":"VEC3"
		},
		{
			"bufferView":20,
			"componentType":5126,
			"count":119,
			"type":"VEC3"
		},
		{
			"bufferView":21,
			"componentType":5126,
			"count":119,
			"type":"VEC2"
		},
		{
			"bufferView":22,
			"componentType":5126,
			"count":99,
			"max":[
				-0.11635806411504745,
				0.19630062580108643,
				-0.00873427651822567
			],
			"min":[
				-0.6150963306427002,
				-0.19630062580108643,
				-0.034911055117845535
			],
			"type":"VEC3"
		},
		{
			"bufferView":23,
			"componentType":5126,
			"count":99,
			"type":"VEC3"
		},
		{
			"bufferView":24,
			"componentType":5126,
			"count":99,
			"type":"VEC2"
		},
		{
			"bufferView":25,
			"componentType":5123,
			"count":480,
			"type":"SCALAR"
		}
	],
	"bufferViews":[
		{
			"buffer":0,
			"byteLength":58980,
			"byteOffset":0,
			"target":34962
		},
		{
			"buffer":0,
			"byteLength":58980,
			"byteOffset":58980,
			"target":34962
		},
		{
			"buffer":0,
			"byteLength":39320,
			"byteOffset":117960,
			"target":34962
		},
		{
			"buffer":0,
			"byteLength":25392,
			"byteOffset":157280,
			"target":34963
		},
		{
			"buffer":0,
			"byteLength":1428,
			"byteOffset":182672,
			"target":34962
		},
		{
			"buffer":0,
			"byteLength":1428,
			"byteOffset":184100,
			"target":34962
		},
		{
			"buffer":0,
			"byteLength":952,
			"byteOffset":185528,
			"target":34962
		},
		{
			"buffer":0,
			"byteLength":672,
			"byteOffset":186480,
			"target":34963
		},
		{
			"buffer":0,
			"byteLength":5196,
			"byteOffset":187152,
			"target":34962
		},
		{
			"buffer":0,
			"byteLength":5196,
			"byteOffset":192348,
			"target":34962
		},
		{
			"buffer":0,
			"byteLength":3464,
			"byteOffset":197544,
			"target":34962
		},
		{
			"buffer":0,
			"byteLength":2832,
			"byteOffset":201008,
			"target":34963
		},
		{
			"buffer":0,
			"byteLength":5196,
			"byteOffset":203840,
			"target":34962
		},
		{
			"buffer":0,
			"byteLength":5196,
			"byteOffset":209036,
			"target":34962
		},
		{
			"buffer":0,
			"byteLength":3464,
			"byteOffset":214232,
			"target":34962
		},
		{
			"buffer":0,
			"byteLength":1428,
			"byteOffset":217696,
			"target":34962
		},
		{
			"buffer":0,
			"byteLength":1428,
			"byteOffset":219124,
			"target":34962
		},
		{
			"buffer":0,
			"byteLength":952,
			"byteOffset":220552,
			"target":34962
		},
		{
			"buffer":0,
			"byteLength":672,
			"byteOffset":221504,
			"target":34963
		},
		{
			"buffer":0,
			"byteLength":1428,
			"byteOffset":222176,
			"target":34962
		},
		{
			"buffer":0,
			"byteLength":1428,
			"byteOffset":223604,
			"target":34962
		},
		{
			"buffer":0,
			"byteLength":952,
			"byteOffset":225032,
			"target":34962
		},
		{
			"buffer":0,
			"byteLength":1188,
			"byteOffset":225984,
			"target":34962
		},
		{
			"buffer":0,
			"byteLength":1188,
			"byteOffset":227172,
			"target":34962
		},
		{
			"buffer":0,
			"byteLength":792,
			"byteOffset":228360,
			"target":34962
		},
		{
			"buffer":0,
			"byteLength":960,
			"byteOffset":229152,
			"target":34963
		}
	],
	"buffers":[
		{
			"byteLength":230112,
			"uri":"tv.bin"
		}
	]
}
